<svg width="90" height="90" viewBox="0 0 90 90" fill="none" xmlns="http://www.w3.org/2000/svg">
<path d="M45 57C51.6274 57 57 51.6274 57 45C57 38.3726 51.6274 33 45 33C38.3726 33 33 38.3726 33 45C33 51.6274 38.3726 57 45 57Z" fill="black"/>
<path d="M33.75 7.5L26.8875 15H15C10.875 15 7.5 18.375 7.5 22.5V67.5C7.5 71.625 10.875 75 15 75H75C79.125 75 82.5 71.625 82.5 67.5V22.5C82.5 18.375 79.125 15 75 15H63.1125L56.25 7.5H33.75ZM45 63.75C34.65 63.75 26.25 55.35 26.25 45C26.25 34.65 34.65 26.25 45 26.25C55.35 26.25 63.75 34.65 63.75 45C63.75 55.35 55.35 63.75 45 63.75Z" fill="black"/>
</svg>
