<svg width="270" height="187" viewBox="0 0 270 187" fill="none" xmlns="http://www.w3.org/2000/svg">
<rect x="0.5" y="0.5" width="269" height="186" rx="19.5" fill="#94E5FF"/>
<path d="M77.4844 150V124.406H86.2559C89.1504 124.406 91.3535 124.986 92.8652 126.146C94.377 127.307 95.1328 129.035 95.1328 131.332C95.1328 132.504 94.8164 133.559 94.1836 134.496C93.5508 135.434 92.625 136.16 91.4062 136.676C92.7891 137.051 93.8555 137.76 94.6055 138.803C95.3672 139.834 95.748 141.076 95.748 142.529C95.748 144.932 94.9746 146.777 93.4277 148.066C91.8926 149.355 89.6895 150 86.8184 150H77.4844ZM81.9316 138.451V146.449H86.8711C88.2656 146.449 89.3555 146.104 90.1406 145.412C90.9258 144.721 91.3184 143.76 91.3184 142.529C91.3184 139.869 89.959 138.51 87.2402 138.451H81.9316ZM81.9316 135.182H86.291C87.6738 135.182 88.752 134.871 89.5254 134.25C90.3105 133.617 90.7031 132.727 90.7031 131.578C90.7031 130.312 90.3398 129.398 89.6133 128.836C88.8984 128.273 87.7793 127.992 86.2559 127.992H81.9316V135.182ZM106.436 143.883L110.303 130.98H114.855L107.297 152.883C106.137 156.082 104.168 157.682 101.391 157.682C100.77 157.682 100.084 157.576 99.334 157.365V154.061L100.143 154.113C101.221 154.113 102.029 153.914 102.568 153.516C103.119 153.129 103.553 152.473 103.869 151.547L104.484 149.912L97.8047 130.98H102.41L106.436 143.883ZM122.678 126.357V130.98H126.035V134.145H122.678V144.762C122.678 145.488 122.818 146.016 123.1 146.344C123.393 146.66 123.908 146.818 124.646 146.818C125.139 146.818 125.637 146.76 126.141 146.643V149.947C125.168 150.217 124.23 150.352 123.328 150.352C120.047 150.352 118.406 148.541 118.406 144.92V134.145H115.277V130.98H118.406V126.357H122.678ZM154.969 140.684C154.969 143.637 154.307 145.986 152.982 147.732C151.67 149.479 149.859 150.352 147.551 150.352C145.324 150.352 143.59 149.549 142.348 147.943L142.137 150H138.27V123H142.541V132.809C143.771 131.355 145.43 130.629 147.516 130.629C149.836 130.629 151.658 131.49 152.982 133.213C154.307 134.936 154.969 137.344 154.969 140.438V140.684ZM150.697 140.314C150.697 138.252 150.334 136.705 149.607 135.674C148.881 134.643 147.826 134.127 146.443 134.127C144.592 134.127 143.291 134.936 142.541 136.553V144.393C143.303 146.045 144.615 146.871 146.479 146.871C147.814 146.871 148.846 146.373 149.572 145.377C150.299 144.381 150.674 142.875 150.697 140.859V140.314ZM163.107 150H158.836V130.98H163.107V150ZM158.572 126.041C158.572 125.385 158.777 124.84 159.188 124.406C159.609 123.973 160.207 123.756 160.98 123.756C161.754 123.756 162.352 123.973 162.773 124.406C163.195 124.84 163.406 125.385 163.406 126.041C163.406 126.686 163.195 127.225 162.773 127.658C162.352 128.08 161.754 128.291 160.98 128.291C160.207 128.291 159.609 128.08 159.188 127.658C158.777 127.225 158.572 126.686 158.572 126.041ZM172.318 150H168.047V123H172.318V150ZM176.186 140.35C176.186 137.42 176.865 135.07 178.225 133.301C179.584 131.52 181.406 130.629 183.691 130.629C185.707 130.629 187.336 131.332 188.578 132.738V123H192.85V150H188.982L188.771 148.031C187.494 149.578 185.789 150.352 183.656 150.352C181.43 150.352 179.625 149.455 178.242 147.662C176.871 145.869 176.186 143.432 176.186 140.35ZM180.457 140.719C180.457 142.652 180.826 144.164 181.564 145.254C182.314 146.332 183.375 146.871 184.746 146.871C186.492 146.871 187.77 146.092 188.578 144.533V136.412C187.793 134.889 186.527 134.127 184.781 134.127C183.398 134.127 182.332 134.678 181.582 135.779C180.832 136.869 180.457 138.516 180.457 140.719Z" fill="black"/>
<path d="M97.5 40.8333V99.1667C97.5 103.75 101.208 107.5 105.833 107.5H164.167C168.75 107.5 172.5 103.75 172.5 99.1667V40.8333C172.5 36.25 168.75 32.5 164.167 32.5H105.833C101.208 32.5 97.5 36.25 97.5 40.8333ZM147.5 57.5C147.5 64.4167 141.917 70 135 70C128.083 70 122.5 64.4167 122.5 57.5C122.5 50.5833 128.083 45 135 45C141.917 45 147.5 50.5833 147.5 57.5ZM110 90.8333C110 82.5 126.667 77.9167 135 77.9167C143.333 77.9167 160 82.5 160 90.8333V95H110V90.8333Z" fill="black"/>
<rect x="0.5" y="0.5" width="269" height="186" rx="19.5" stroke="#999999"/>
</svg>
