<svg width="80" height="82" viewBox="0 0 80 82" fill="none" xmlns="http://www.w3.org/2000/svg">
<path d="M70.875 54.5668C65.75 54.5668 60.7917 53.6853 56.1667 52.0985C54.7083 51.5696 53.0833 51.9663 51.9583 53.1564L45.4167 61.8394C33.625 55.8891 22.5833 44.6496 16.7083 31.7351L24.8333 24.4184C25.9583 23.1843 26.2917 21.4653 25.8333 19.9226C24.2917 15.0301 23.5 9.785 23.5 4.36358C23.5 1.98345 21.625 0 19.375 0H4.95833C2.70833 0 0 1.05784 0 4.36358C0 45.3107 32.2083 79.3378 70.875 79.3378C73.8333 79.3378 75 76.561 75 74.1368V58.9304C75 56.5503 73.125 54.5668 70.875 54.5668Z" fill="black"/>
<path d="M36.2322 67.525L35.5 68.2572V69.2927V77V79.5H38H45.7073H46.7428L47.475 78.7678L70.2063 56.0365L70.6377 55.6051L71.9741 54.2687L72.4055 53.8373L76.1666 50.0762C77.9445 48.2983 77.9445 45.4206 76.1666 43.6427L71.3573 38.8334L69.5895 40.6012L71.3573 38.8334C69.5794 37.0555 66.7017 37.0555 64.9238 38.8334L61.1627 42.5945L60.7313 43.0259L59.3949 44.3623L58.9635 44.7937L36.2322 67.525Z" fill="black" stroke="#94E5FF" stroke-width="5"/>
</svg>
