<svg width="58" height="75" viewBox="0 0 58 75" fill="none" xmlns="http://www.w3.org/2000/svg">
<path d="M50 25H46.4286V17.8571C46.4286 8 38.4286 0 28.5714 0C18.7143 0 10.7143 8 10.7143 17.8571V25H7.14286C3.21429 25 0 28.2143 0 32.1429V67.8571C0 71.7857 3.21429 75 7.14286 75H50C53.9286 75 57.1429 71.7857 57.1429 67.8571V32.1429C57.1429 28.2143 53.9286 25 50 25ZM28.5714 57.1429C24.6429 57.1429 21.4286 53.9286 21.4286 50C21.4286 46.0714 24.6429 42.8571 28.5714 42.8571C32.5 42.8571 35.7143 46.0714 35.7143 50C35.7143 53.9286 32.5 57.1429 28.5714 57.1429ZM39.6429 25H17.5V17.8571C17.5 11.75 22.4643 6.78571 28.5714 6.78571C34.6786 6.78571 39.6429 11.75 39.6429 17.8571V25Z" fill="black"/>
</svg>
