<?xml version="1.0" encoding="utf-8"?>
<svg width="270" height="187" viewBox="0 0 270 187" fill="none" xmlns="http://www.w3.org/2000/svg">
<rect x="0.5" y="0.5" width="269" height="186" rx="19.5" fill="#94E5FF"/>
<path d="M32.5547 144.041H22.6406L20.5664 150H15.9434L25.6113 124.406H29.6016L39.2871 150H34.6465L32.5547 144.041ZM23.8887 140.455H31.3066L27.5977 129.838L23.8887 140.455ZM21.4453 120.539C21.4453 119.953 21.6387 119.461 22.0254 119.062C22.4238 118.664 22.9688 118.465 23.6602 118.465C24.3516 118.465 24.8965 118.664 25.2949 119.062C25.6934 119.461 25.8926 119.953 25.8926 120.539C25.8926 121.125 25.6934 121.617 25.2949 122.016C24.8965 122.414 24.3516 122.613 23.6602 122.613C22.9688 122.613 22.4238 122.414 22.0254 122.016C21.6387 121.617 21.4453 121.125 21.4453 120.539ZM29.4785 120.557C29.4785 119.971 29.6719 119.479 30.0586 119.08C30.457 118.682 31.002 118.482 31.6934 118.482C32.3848 118.482 32.9297 118.682 33.3281 119.08C33.7266 119.479 33.9258 119.971 33.9258 120.557C33.9258 121.143 33.7266 121.635 33.3281 122.033C32.9297 122.432 32.3848 122.631 31.6934 122.631C31.002 122.631 30.457 122.432 30.0586 122.033C29.6719 121.635 29.4785 121.143 29.4785 120.557ZM44.9121 130.98L45.0352 133.178C46.4414 131.479 48.2871 130.629 50.5723 130.629C54.5332 130.629 56.5488 132.896 56.6191 137.432V150H52.3477V137.678C52.3477 136.471 52.084 135.58 51.5566 135.006C51.041 134.42 50.1914 134.127 49.0078 134.127C47.2852 134.127 46.002 134.906 45.1582 136.465V150H40.8867V130.98H44.9121ZM60.1875 140.35C60.1875 137.42 60.8672 135.07 62.2266 133.301C63.5859 131.52 65.4082 130.629 67.6934 130.629C69.709 130.629 71.3379 131.332 72.5801 132.738V123H76.8516V150H72.9844L72.7734 148.031C71.4961 149.578 69.791 150.352 67.6582 150.352C65.4316 150.352 63.627 149.455 62.2441 147.662C60.873 145.869 60.1875 143.432 60.1875 140.35ZM64.459 140.719C64.459 142.652 64.8281 144.164 65.5664 145.254C66.3164 146.332 67.377 146.871 68.748 146.871C70.4941 146.871 71.7715 146.092 72.5801 144.533V136.412C71.7949 134.889 70.5293 134.127 68.7832 134.127C67.4004 134.127 66.334 134.678 65.584 135.779C64.834 136.869 64.459 138.516 64.459 140.719ZM91.2656 134.883C90.7031 134.789 90.123 134.742 89.5254 134.742C87.5684 134.742 86.25 135.492 85.5703 136.992V150H81.2988V130.98H85.377L85.4824 133.107C86.5137 131.455 87.9434 130.629 89.7715 130.629C90.3809 130.629 90.8848 130.711 91.2832 130.875L91.2656 134.883ZM104.801 150C104.613 149.637 104.449 149.045 104.309 148.225C102.949 149.643 101.285 150.352 99.3164 150.352C97.4062 150.352 95.8477 149.807 94.6406 148.717C93.4336 147.627 92.8301 146.279 92.8301 144.674C92.8301 142.646 93.5801 141.094 95.0801 140.016C96.5918 138.926 98.748 138.381 101.549 138.381H104.168V137.133C104.168 136.148 103.893 135.363 103.342 134.777C102.791 134.18 101.953 133.881 100.828 133.881C99.8555 133.881 99.0586 134.127 98.4375 134.619C97.8164 135.1 97.5059 135.715 97.5059 136.465H93.2344C93.2344 135.422 93.5801 134.449 94.2715 133.547C94.9629 132.633 95.9004 131.918 97.084 131.402C98.2793 130.887 99.6094 130.629 101.074 130.629C103.301 130.629 105.076 131.191 106.4 132.316C107.725 133.43 108.404 135 108.439 137.027V145.605C108.439 147.316 108.68 148.682 109.16 149.701V150H104.801ZM100.107 146.924C100.951 146.924 101.742 146.719 102.48 146.309C103.23 145.898 103.793 145.348 104.168 144.656V141.07H101.865C100.283 141.07 99.0938 141.346 98.2969 141.896C97.5 142.447 97.1016 143.227 97.1016 144.234C97.1016 145.055 97.3711 145.711 97.9102 146.203C98.4609 146.684 99.1934 146.924 100.107 146.924ZM125.842 130.98L125.965 133.178C127.371 131.479 129.217 130.629 131.502 130.629C135.463 130.629 137.479 132.896 137.549 137.432V150H133.277V137.678C133.277 136.471 133.014 135.58 132.486 135.006C131.971 134.42 131.121 134.127 129.938 134.127C128.215 134.127 126.932 134.906 126.088 136.465V150H121.816V130.98H125.842ZM153.439 148.137C152.186 149.613 150.404 150.352 148.096 150.352C146.033 150.352 144.469 149.748 143.402 148.541C142.348 147.334 141.82 145.588 141.82 143.303V130.98H146.092V143.25C146.092 145.664 147.094 146.871 149.098 146.871C151.172 146.871 152.572 146.127 153.299 144.639V130.98H157.57V150H153.545L153.439 148.137ZM165.938 130.98L166.061 132.967C167.396 131.408 169.225 130.629 171.545 130.629C174.088 130.629 175.828 131.602 176.766 133.547C178.148 131.602 180.094 130.629 182.602 130.629C184.699 130.629 186.258 131.209 187.277 132.369C188.309 133.529 188.836 135.24 188.859 137.502V150H184.588V137.625C184.588 136.418 184.324 135.533 183.797 134.971C183.27 134.408 182.396 134.127 181.178 134.127C180.205 134.127 179.408 134.391 178.787 134.918C178.178 135.434 177.75 136.113 177.504 136.957L177.521 150H173.25V137.484C173.191 135.246 172.049 134.127 169.822 134.127C168.111 134.127 166.898 134.824 166.184 136.219V150H161.912V130.98H165.938ZM197.262 130.98L197.385 132.967C198.721 131.408 200.549 130.629 202.869 130.629C205.412 130.629 207.152 131.602 208.09 133.547C209.473 131.602 211.418 130.629 213.926 130.629C216.023 130.629 217.582 131.209 218.602 132.369C219.633 133.529 220.16 135.24 220.184 137.502V150H215.912V137.625C215.912 136.418 215.648 135.533 215.121 134.971C214.594 134.408 213.721 134.127 212.502 134.127C211.529 134.127 210.732 134.391 210.111 134.918C209.502 135.434 209.074 136.113 208.828 136.957L208.846 150H204.574V137.484C204.516 135.246 203.373 134.127 201.146 134.127C199.436 134.127 198.223 134.824 197.508 136.219V150H193.236V130.98H197.262ZM232.945 150.352C230.238 150.352 228.041 149.502 226.354 147.803C224.678 146.092 223.84 143.818 223.84 140.982V140.455C223.84 138.557 224.203 136.863 224.93 135.375C225.668 133.875 226.699 132.709 228.023 131.877C229.348 131.045 230.824 130.629 232.453 130.629C235.043 130.629 237.041 131.455 238.447 133.107C239.865 134.76 240.574 137.098 240.574 140.121V141.844H228.146C228.275 143.414 228.797 144.656 229.711 145.57C230.637 146.484 231.797 146.941 233.191 146.941C235.148 146.941 236.742 146.15 237.973 144.568L240.275 146.766C239.514 147.902 238.494 148.787 237.217 149.42C235.951 150.041 234.527 150.352 232.945 150.352ZM232.436 134.057C231.264 134.057 230.314 134.467 229.588 135.287C228.873 136.107 228.416 137.25 228.217 138.715H236.355V138.398C236.262 136.969 235.881 135.891 235.213 135.164C234.545 134.426 233.619 134.057 232.436 134.057ZM253.863 134.883C253.301 134.789 252.721 134.742 252.123 134.742C250.166 134.742 248.848 135.492 248.168 136.992V150H243.896V130.98H247.975L248.08 133.107C249.111 131.455 250.541 130.629 252.369 130.629C252.979 130.629 253.482 130.711 253.881 130.875L253.863 134.883Z" fill="black"/>
<path d="M167.875 80.5668C162.75 80.5668 157.792 79.6853 153.167 78.0985C151.708 77.5696 150.083 77.9663 148.958 79.1564L142.417 87.8394C130.625 81.8891 119.583 70.6496 113.708 57.7351L121.833 50.4184C122.958 49.1843 123.292 47.4653 122.833 45.9226C121.292 41.0301 120.5 35.785 120.5 30.3636C120.5 27.9834 118.625 26 116.375 26H101.958C99.7083 26 97 27.0578 97 30.3636C97 71.3107 129.208 105.338 167.875 105.338C170.833 105.338 172 102.561 172 100.137V84.9304C172 82.5503 170.125 80.5668 167.875 80.5668Z" fill="black"/>
<path d="M133.232 93.525L132.5 94.2572V95.2927V103V105.5H135H142.707H143.743L144.475 104.768L167.206 82.0365L167.638 81.6051L168.974 80.2687L169.405 79.8373L173.167 76.0762C174.944 74.2983 174.944 71.4206 173.167 69.6427L168.357 64.8334L166.59 66.6012L168.357 64.8334C166.579 63.0555 163.702 63.0555 161.924 64.8334L158.163 68.5945L157.731 69.0259L156.395 70.3623L155.964 70.7937L133.232 93.525Z" fill="black" stroke="#94E5FF" stroke-width="5"/>
<rect x="0.5" y="0.5" width="269" height="186" rx="19.5" stroke="#999999"/>
</svg>