<svg width="270" height="187" viewBox="0 0 270 187" fill="none" xmlns="http://www.w3.org/2000/svg">
<rect x="0.5" y="0.5" width="269" height="186" rx="19.5" fill="#94E5FF"/>
<path d="M38.5977 150V124.406H47.3691C50.2637 124.406 52.4668 124.986 53.9785 126.146C55.4902 127.307 56.2461 129.035 56.2461 131.332C56.2461 132.504 55.9297 133.559 55.2969 134.496C54.6641 135.434 53.7383 136.16 52.5195 136.676C53.9023 137.051 54.9688 137.76 55.7188 138.803C56.4805 139.834 56.8613 141.076 56.8613 142.529C56.8613 144.932 56.0879 146.777 54.541 148.066C53.0059 149.355 50.8027 150 47.9316 150H38.5977ZM43.0449 138.451V146.449H47.9844C49.3789 146.449 50.4688 146.104 51.2539 145.412C52.0391 144.721 52.4316 143.76 52.4316 142.529C52.4316 139.869 51.0723 138.51 48.3535 138.451H43.0449ZM43.0449 135.182H47.4043C48.7871 135.182 49.8652 134.871 50.6387 134.25C51.4238 133.617 51.8164 132.727 51.8164 131.578C51.8164 130.312 51.4531 129.398 50.7266 128.836C50.0117 128.273 48.8926 127.992 47.3691 127.992H43.0449V135.182ZM67.5488 143.883L71.416 130.98H75.9688L68.4102 152.883C67.25 156.082 65.2812 157.682 62.5039 157.682C61.8828 157.682 61.1973 157.576 60.4473 157.365V154.061L61.2559 154.113C62.334 154.113 63.1426 153.914 63.6816 153.516C64.2324 153.129 64.666 152.473 64.9824 151.547L65.5977 149.912L58.918 130.98H63.5234L67.5488 143.883ZM83.791 126.357V130.98H87.1484V134.145H83.791V144.762C83.791 145.488 83.9316 146.016 84.2129 146.344C84.5059 146.66 85.0215 146.818 85.7598 146.818C86.252 146.818 86.75 146.76 87.2539 146.643V149.947C86.2812 150.217 85.3438 150.352 84.4414 150.352C81.1602 150.352 79.5195 148.541 79.5195 144.92V134.145H76.3906V130.98H79.5195V126.357H83.791ZM103.936 150H99.6641V123H103.936V150ZM107.803 140.314C107.803 138.451 108.172 136.775 108.91 135.287C109.648 133.787 110.686 132.639 112.021 131.842C113.357 131.033 114.893 130.629 116.627 130.629C119.193 130.629 121.273 131.455 122.867 133.107C124.473 134.76 125.34 136.951 125.469 139.682L125.486 140.684C125.486 142.559 125.123 144.234 124.396 145.711C123.682 147.188 122.65 148.33 121.303 149.139C119.967 149.947 118.42 150.352 116.662 150.352C113.979 150.352 111.828 149.461 110.211 147.68C108.605 145.887 107.803 143.502 107.803 140.525V140.314ZM112.074 140.684C112.074 142.641 112.479 144.176 113.287 145.289C114.096 146.391 115.221 146.941 116.662 146.941C118.104 146.941 119.223 146.379 120.02 145.254C120.828 144.129 121.232 142.482 121.232 140.314C121.232 138.393 120.816 136.869 119.984 135.744C119.164 134.619 118.045 134.057 116.627 134.057C115.232 134.057 114.125 134.613 113.305 135.727C112.484 136.828 112.074 138.48 112.074 140.684ZM110.316 125.988C110.316 125.402 110.51 124.91 110.896 124.512C111.295 124.113 111.84 123.914 112.531 123.914C113.223 123.914 113.768 124.113 114.166 124.512C114.564 124.91 114.764 125.402 114.764 125.988C114.764 126.574 114.564 127.066 114.166 127.465C113.768 127.863 113.223 128.062 112.531 128.062C111.84 128.062 111.295 127.863 110.896 127.465C110.51 127.066 110.316 126.574 110.316 125.988ZM118.35 126.006C118.35 125.42 118.543 124.928 118.93 124.529C119.328 124.131 119.873 123.932 120.564 123.932C121.256 123.932 121.801 124.131 122.199 124.529C122.598 124.928 122.797 125.42 122.797 126.006C122.797 126.592 122.598 127.084 122.199 127.482C121.801 127.881 121.256 128.08 120.564 128.08C119.873 128.08 119.328 127.881 118.93 127.482C118.543 127.084 118.35 126.592 118.35 126.006ZM139.76 144.832C139.76 144.07 139.443 143.49 138.811 143.092C138.189 142.693 137.152 142.342 135.699 142.037C134.246 141.732 133.033 141.346 132.061 140.877C129.928 139.846 128.861 138.352 128.861 136.395C128.861 134.754 129.553 133.383 130.936 132.281C132.318 131.18 134.076 130.629 136.209 130.629C138.482 130.629 140.316 131.191 141.711 132.316C143.117 133.441 143.82 134.9 143.82 136.693H139.549C139.549 135.873 139.244 135.193 138.635 134.654C138.025 134.104 137.217 133.828 136.209 133.828C135.271 133.828 134.504 134.045 133.906 134.479C133.32 134.912 133.027 135.492 133.027 136.219C133.027 136.875 133.303 137.385 133.854 137.748C134.404 138.111 135.518 138.48 137.193 138.855C138.869 139.219 140.182 139.658 141.131 140.174C142.092 140.678 142.801 141.287 143.258 142.002C143.727 142.717 143.961 143.584 143.961 144.604C143.961 146.314 143.252 147.703 141.834 148.77C140.416 149.824 138.559 150.352 136.262 150.352C134.703 150.352 133.314 150.07 132.096 149.508C130.877 148.945 129.928 148.172 129.248 147.188C128.568 146.203 128.229 145.143 128.229 144.006H132.377C132.436 145.014 132.816 145.793 133.52 146.344C134.223 146.883 135.154 147.152 136.314 147.152C137.439 147.152 138.295 146.941 138.881 146.52C139.467 146.086 139.76 145.523 139.76 144.832ZM156.072 150.352C153.365 150.352 151.168 149.502 149.48 147.803C147.805 146.092 146.967 143.818 146.967 140.982V140.455C146.967 138.557 147.33 136.863 148.057 135.375C148.795 133.875 149.826 132.709 151.15 131.877C152.475 131.045 153.951 130.629 155.58 130.629C158.17 130.629 160.168 131.455 161.574 133.107C162.992 134.76 163.701 137.098 163.701 140.121V141.844H151.273C151.402 143.414 151.924 144.656 152.838 145.57C153.764 146.484 154.924 146.941 156.318 146.941C158.275 146.941 159.869 146.15 161.1 144.568L163.402 146.766C162.641 147.902 161.621 148.787 160.344 149.42C159.078 150.041 157.654 150.352 156.072 150.352ZM155.562 134.057C154.391 134.057 153.441 134.467 152.715 135.287C152 136.107 151.543 137.25 151.344 138.715H159.482V138.398C159.389 136.969 159.008 135.891 158.34 135.164C157.672 134.426 156.746 134.057 155.562 134.057ZM170.996 130.98L171.119 133.178C172.525 131.479 174.371 130.629 176.656 130.629C180.617 130.629 182.633 132.896 182.703 137.432V150H178.432V137.678C178.432 136.471 178.168 135.58 177.641 135.006C177.125 134.42 176.275 134.127 175.092 134.127C173.369 134.127 172.086 134.906 171.242 136.465V150H166.971V130.98H170.996ZM186.271 140.314C186.271 138.451 186.641 136.775 187.379 135.287C188.117 133.787 189.154 132.639 190.49 131.842C191.826 131.033 193.361 130.629 195.096 130.629C197.662 130.629 199.742 131.455 201.336 133.107C202.941 134.76 203.809 136.951 203.938 139.682L203.955 140.684C203.955 142.559 203.592 144.234 202.865 145.711C202.15 147.188 201.119 148.33 199.771 149.139C198.436 149.947 196.889 150.352 195.131 150.352C192.447 150.352 190.297 149.461 188.68 147.68C187.074 145.887 186.271 143.502 186.271 140.525V140.314ZM190.543 140.684C190.543 142.641 190.947 144.176 191.756 145.289C192.564 146.391 193.689 146.941 195.131 146.941C196.572 146.941 197.691 146.379 198.488 145.254C199.297 144.129 199.701 142.482 199.701 140.314C199.701 138.393 199.285 136.869 198.453 135.744C197.633 134.619 196.514 134.057 195.096 134.057C193.701 134.057 192.594 134.613 191.773 135.727C190.953 136.828 190.543 138.48 190.543 140.684ZM217.525 134.883C216.963 134.789 216.383 134.742 215.785 134.742C213.828 134.742 212.51 135.492 211.83 136.992V150H207.559V130.98H211.637L211.742 133.107C212.773 131.455 214.203 130.629 216.031 130.629C216.641 130.629 217.145 130.711 217.543 130.875L217.525 134.883ZM219.072 140.35C219.072 137.42 219.752 135.07 221.111 133.301C222.471 131.52 224.293 130.629 226.578 130.629C228.594 130.629 230.223 131.332 231.465 132.738V123H235.736V150H231.869L231.658 148.031C230.381 149.578 228.676 150.352 226.543 150.352C224.316 150.352 222.512 149.455 221.129 147.662C219.758 145.869 219.072 143.432 219.072 140.35ZM223.344 140.719C223.344 142.652 223.713 144.164 224.451 145.254C225.201 146.332 226.262 146.871 227.633 146.871C229.379 146.871 230.656 146.092 231.465 144.533V136.412C230.68 134.889 229.414 134.127 227.668 134.127C226.285 134.127 225.219 134.678 224.469 135.779C223.719 136.869 223.344 138.516 223.344 140.719Z" fill="black"/>
<path d="M163.625 59H158.938V51.8571C158.938 42 148.438 34 135.5 34C122.562 34 112.062 42 112.062 51.8571V59H107.375C102.219 59 98 62.2143 98 66.1429V101.857C98 105.786 102.219 109 107.375 109H163.625C168.781 109 173 105.786 173 101.857V66.1429C173 62.2143 168.781 59 163.625 59ZM135.5 91.1429C130.344 91.1429 126.125 87.9286 126.125 84C126.125 80.0714 130.344 76.8571 135.5 76.8571C140.656 76.8571 144.875 80.0714 144.875 84C144.875 87.9286 140.656 91.1429 135.5 91.1429ZM150.031 59H120.969V51.8571C120.969 45.75 127.484 40.7857 135.5 40.7857C143.516 40.7857 150.031 45.75 150.031 51.8571V59Z" fill="black"/>
<rect x="0.5" y="0.5" width="269" height="186" rx="19.5" stroke="#999999"/>
</svg>
