<?xml version="1.0" encoding="utf-8"?>
<svg width="270" height="187" viewBox="0 0 270 187" fill="none" xmlns="http://www.w3.org/2000/svg">
<rect x="0.5" y="0.5" width="269" height="186" rx="19.5" fill="#94E5FF"/>
<path d="M54.457 144.041H44.543L42.4688 150H37.8457L47.5137 124.406H51.5039L61.1895 150H56.5488L54.457 144.041ZM45.791 140.455H53.209L49.5 129.838L45.791 140.455ZM43.3477 120.539C43.3477 119.953 43.541 119.461 43.9277 119.062C44.3262 118.664 44.8711 118.465 45.5625 118.465C46.2539 118.465 46.7988 118.664 47.1973 119.062C47.5957 119.461 47.7949 119.953 47.7949 120.539C47.7949 121.125 47.5957 121.617 47.1973 122.016C46.7988 122.414 46.2539 122.613 45.5625 122.613C44.8711 122.613 44.3262 122.414 43.9277 122.016C43.541 121.617 43.3477 121.125 43.3477 120.539ZM51.3809 120.557C51.3809 119.971 51.5742 119.479 51.9609 119.08C52.3594 118.682 52.9043 118.482 53.5957 118.482C54.2871 118.482 54.832 118.682 55.2305 119.08C55.6289 119.479 55.8281 119.971 55.8281 120.557C55.8281 121.143 55.6289 121.635 55.2305 122.033C54.832 122.432 54.2871 122.631 53.5957 122.631C52.9043 122.631 52.3594 122.432 51.9609 122.033C51.5742 121.635 51.3809 121.143 51.3809 120.557ZM66.8145 130.98L66.9375 133.178C68.3438 131.479 70.1895 130.629 72.4746 130.629C76.4355 130.629 78.4512 132.896 78.5215 137.432V150H74.25V137.678C74.25 136.471 73.9863 135.58 73.459 135.006C72.9434 134.42 72.0938 134.127 70.9102 134.127C69.1875 134.127 67.9043 134.906 67.0605 136.465V150H62.7891V130.98H66.8145ZM82.0898 140.35C82.0898 137.42 82.7695 135.07 84.1289 133.301C85.4883 131.52 87.3105 130.629 89.5957 130.629C91.6113 130.629 93.2402 131.332 94.4824 132.738V123H98.7539V150H94.8867L94.6758 148.031C93.3984 149.578 91.6934 150.352 89.5605 150.352C87.334 150.352 85.5293 149.455 84.1465 147.662C82.7754 145.869 82.0898 143.432 82.0898 140.35ZM86.3613 140.719C86.3613 142.652 86.7305 144.164 87.4688 145.254C88.2188 146.332 89.2793 146.871 90.6504 146.871C92.3965 146.871 93.6738 146.092 94.4824 144.533V136.412C93.6973 134.889 92.4316 134.127 90.6855 134.127C89.3027 134.127 88.2363 134.678 87.4863 135.779C86.7363 136.869 86.3613 138.516 86.3613 140.719ZM113.168 134.883C112.605 134.789 112.025 134.742 111.428 134.742C109.471 134.742 108.152 135.492 107.473 136.992V150H103.201V130.98H107.279L107.385 133.107C108.416 131.455 109.846 130.629 111.674 130.629C112.283 130.629 112.787 130.711 113.186 130.875L113.168 134.883ZM126.703 150C126.516 149.637 126.352 149.045 126.211 148.225C124.852 149.643 123.188 150.352 121.219 150.352C119.309 150.352 117.75 149.807 116.543 148.717C115.336 147.627 114.732 146.279 114.732 144.674C114.732 142.646 115.482 141.094 116.982 140.016C118.494 138.926 120.65 138.381 123.451 138.381H126.07V137.133C126.07 136.148 125.795 135.363 125.244 134.777C124.693 134.18 123.855 133.881 122.73 133.881C121.758 133.881 120.961 134.127 120.34 134.619C119.719 135.1 119.408 135.715 119.408 136.465H115.137C115.137 135.422 115.482 134.449 116.174 133.547C116.865 132.633 117.803 131.918 118.986 131.402C120.182 130.887 121.512 130.629 122.977 130.629C125.203 130.629 126.979 131.191 128.303 132.316C129.627 133.43 130.307 135 130.342 137.027V145.605C130.342 147.316 130.582 148.682 131.062 149.701V150H126.703ZM122.01 146.924C122.854 146.924 123.645 146.719 124.383 146.309C125.133 145.898 125.695 145.348 126.07 144.656V141.07H123.768C122.186 141.07 120.996 141.346 120.199 141.896C119.402 142.447 119.004 143.227 119.004 144.234C119.004 145.055 119.273 145.711 119.812 146.203C120.363 146.684 121.096 146.924 122.01 146.924ZM147.744 130.98L147.867 133.178C149.273 131.479 151.119 130.629 153.404 130.629C157.365 130.629 159.381 132.896 159.451 137.432V150H155.18V137.678C155.18 136.471 154.916 135.58 154.389 135.006C153.873 134.42 153.023 134.127 151.84 134.127C150.117 134.127 148.834 134.906 147.99 136.465V150H143.719V130.98H147.744ZM175.184 150C174.996 149.637 174.832 149.045 174.691 148.225C173.332 149.643 171.668 150.352 169.699 150.352C167.789 150.352 166.23 149.807 165.023 148.717C163.816 147.627 163.213 146.279 163.213 144.674C163.213 142.646 163.963 141.094 165.463 140.016C166.975 138.926 169.131 138.381 171.932 138.381H174.551V137.133C174.551 136.148 174.275 135.363 173.725 134.777C173.174 134.18 172.336 133.881 171.211 133.881C170.238 133.881 169.441 134.127 168.82 134.619C168.199 135.1 167.889 135.715 167.889 136.465H163.617C163.617 135.422 163.963 134.449 164.654 133.547C165.346 132.633 166.283 131.918 167.467 131.402C168.662 130.887 169.992 130.629 171.457 130.629C173.684 130.629 175.459 131.191 176.783 132.316C178.107 133.43 178.787 135 178.822 137.027V145.605C178.822 147.316 179.062 148.682 179.543 149.701V150H175.184ZM170.49 146.924C171.334 146.924 172.125 146.719 172.863 146.309C173.613 145.898 174.176 145.348 174.551 144.656V141.07H172.248C170.666 141.07 169.477 141.346 168.68 141.896C167.883 142.447 167.484 143.227 167.484 144.234C167.484 145.055 167.754 145.711 168.293 146.203C168.844 146.684 169.576 146.924 170.49 146.924ZM187.312 130.98L187.436 132.967C188.771 131.408 190.6 130.629 192.92 130.629C195.463 130.629 197.203 131.602 198.141 133.547C199.523 131.602 201.469 130.629 203.977 130.629C206.074 130.629 207.633 131.209 208.652 132.369C209.684 133.529 210.211 135.24 210.234 137.502V150H205.963V137.625C205.963 136.418 205.699 135.533 205.172 134.971C204.645 134.408 203.771 134.127 202.553 134.127C201.58 134.127 200.783 134.391 200.162 134.918C199.553 135.434 199.125 136.113 198.879 136.957L198.896 150H194.625V137.484C194.566 135.246 193.424 134.127 191.197 134.127C189.486 134.127 188.273 134.824 187.559 136.219V150H183.287V130.98H187.312ZM218.584 130.98L218.707 133.178C220.113 131.479 221.959 130.629 224.244 130.629C228.205 130.629 230.221 132.896 230.291 137.432V150H226.02V137.678C226.02 136.471 225.756 135.58 225.229 135.006C224.713 134.42 223.863 134.127 222.68 134.127C220.957 134.127 219.674 134.906 218.83 136.465V150H214.559V130.98H218.584Z" fill="black"/>
<path d="M100 79.4187V94H114.581L157.586 50.9949L143.005 36.4136L100 79.4187ZM168.863 39.7187C170.379 38.2022 170.379 35.7525 168.863 34.2361L159.764 25.1373C158.247 23.6209 155.798 23.6209 154.281 25.1373L147.166 32.253L161.747 46.8343L168.863 39.7187Z" fill="black"/>
<rect x="0.5" y="0.5" width="269" height="186" rx="19.5" stroke="#999999"/>
</svg>