<svg width="75" height="54" viewBox="0 0 75 54" fill="none" xmlns="http://www.w3.org/2000/svg">
<path d="M70.4348 37.14C65.3416 37.14 60.4141 36.54 55.8178 35.46C54.3685 35.1 52.7536 35.37 51.6356 36.18L45.1346 42.09C33.4161 38.04 22.4431 30.39 16.6046 21.6L24.6791 16.62C25.7971 15.78 26.1284 14.61 25.6729 13.56C24.1408 10.23 23.354 6.66 23.354 2.97C23.354 1.35 21.4907 0 19.2547 0H4.92754C2.69151 0 0 0.72 0 2.97C0 30.84 32.0083 54 70.4348 54C73.3747 54 74.5341 52.11 74.5341 50.46V40.11C74.5341 38.49 72.6708 37.14 70.4348 37.14Z" fill="white"/>
</svg>
