<svg width="50" height="53" viewBox="0 0 50 53" fill="none" xmlns="http://www.w3.org/2000/svg">
<path d="M47.25 36.3779C43.8333 36.3779 40.5278 35.7902 37.4444 34.7323C36.4722 34.3797 35.3889 34.6442 34.6389 35.4376L30.2778 41.2263C22.4167 37.2594 15.0556 29.7664 11.1389 21.1568L16.5556 16.2789C17.3056 15.4562 17.5278 14.3102 17.2222 13.2817C16.1944 10.0201 15.6667 6.52333 15.6667 2.90905C15.6667 1.3223 14.4167 0 12.9167 0H3.30556C1.80556 0 0 0.705225 0 2.90905C0 30.2071 21.4722 52.8919 47.25 52.8919C49.2222 52.8919 50 51.0407 50 49.4245V39.2869C50 37.7002 48.75 36.3779 47.25 36.3779Z" fill="white"/>
</svg>
