<?xml version="1.0" encoding="utf-8"?>
<!-- Generator: Adobe Illustrator 24.0.1, SVG Export Plug-In . SVG Version: 6.00 Build 0)  -->
<svg version="1.1" id="Layer_1" focusable="false" xmlns="http://www.w3.org/2000/svg" xmlns:xlink="http://www.w3.org/1999/xlink"
	 x="0px" y="0px" viewBox="0 0 512 512" style="enable-background:new 0 0 512 512;" xml:space="preserve">
<style type="text/css">
	.st0{fill:#FFFFFF;}
	.st1{display:none;fill:#FB0000;stroke:#FFFFFF;stroke-width:13.9999;stroke-miterlimit:9.9999;}
</style>
<path class="st0" d="M512,144v288c0,26.5-21.5,48-48,48H48c-26.5,0-48-21.5-48-48V144c0-26.5,21.5-48,48-48h88l12.3-32.9
	c7-18.7,24.9-31.1,44.9-31.1h125.5c20,0,37.9,12.4,44.9,31.1L376,96h88C490.5,96,512,117.5,512,144z M376,288
	c0-66.2-53.8-120-120-120s-120,53.8-120,120s53.8,120,120,120S376,354.2,376,288z M344,288c0,48.5-39.5,88-88,88s-88-39.5-88-88
	s39.5-88,88-88S344,239.5,344,288z"/>
<rect x="230.5" y="-17.5" transform="matrix(0.7071 -0.7071 0.7071 0.7071 -128.667 265.3699)" class="st1" width="51" height="611"/>
</svg>
