<svg width="278" height="195" viewBox="0 0 278 195" fill="none" xmlns="http://www.w3.org/2000/svg">
<g filter="url(#filter0_d)">
<rect x="4" width="270" height="187" rx="20" fill="#94E5FF"/>
<path d="M58.457 144.041H48.543L46.4688 150H41.8457L51.5137 124.406H55.5039L65.1895 150H60.5488L58.457 144.041ZM49.791 140.455H57.209L53.5 129.838L49.791 140.455ZM47.3477 120.539C47.3477 119.953 47.541 119.461 47.9277 119.062C48.3262 118.664 48.8711 118.465 49.5625 118.465C50.2539 118.465 50.7988 118.664 51.1973 119.062C51.5957 119.461 51.7949 119.953 51.7949 120.539C51.7949 121.125 51.5957 121.617 51.1973 122.016C50.7988 122.414 50.2539 122.613 49.5625 122.613C48.8711 122.613 48.3262 122.414 47.9277 122.016C47.541 121.617 47.3477 121.125 47.3477 120.539ZM55.3809 120.557C55.3809 119.971 55.5742 119.479 55.9609 119.08C56.3594 118.682 56.9043 118.482 57.5957 118.482C58.2871 118.482 58.832 118.682 59.2305 119.08C59.6289 119.479 59.8281 119.971 59.8281 120.557C59.8281 121.143 59.6289 121.635 59.2305 122.033C58.832 122.432 58.2871 122.631 57.5957 122.631C56.9043 122.631 56.3594 122.432 55.9609 122.033C55.5742 121.635 55.3809 121.143 55.3809 120.557ZM70.8145 130.98L70.9375 133.178C72.3438 131.479 74.1895 130.629 76.4746 130.629C80.4355 130.629 82.4512 132.896 82.5215 137.432V150H78.25V137.678C78.25 136.471 77.9863 135.58 77.459 135.006C76.9434 134.42 76.0938 134.127 74.9102 134.127C73.1875 134.127 71.9043 134.906 71.0605 136.465V150H66.7891V130.98H70.8145ZM86.0898 140.35C86.0898 137.42 86.7695 135.07 88.1289 133.301C89.4883 131.52 91.3105 130.629 93.5957 130.629C95.6113 130.629 97.2402 131.332 98.4824 132.738V123H102.754V150H98.8867L98.6758 148.031C97.3984 149.578 95.6934 150.352 93.5605 150.352C91.334 150.352 89.5293 149.455 88.1465 147.662C86.7754 145.869 86.0898 143.432 86.0898 140.35ZM90.3613 140.719C90.3613 142.652 90.7305 144.164 91.4688 145.254C92.2188 146.332 93.2793 146.871 94.6504 146.871C96.3965 146.871 97.6738 146.092 98.4824 144.533V136.412C97.6973 134.889 96.4316 134.127 94.6855 134.127C93.3027 134.127 92.2363 134.678 91.4863 135.779C90.7363 136.869 90.3613 138.516 90.3613 140.719ZM117.168 134.883C116.605 134.789 116.025 134.742 115.428 134.742C113.471 134.742 112.152 135.492 111.473 136.992V150H107.201V130.98H111.279L111.385 133.107C112.416 131.455 113.846 130.629 115.674 130.629C116.283 130.629 116.787 130.711 117.186 130.875L117.168 134.883ZM130.703 150C130.516 149.637 130.352 149.045 130.211 148.225C128.852 149.643 127.188 150.352 125.219 150.352C123.309 150.352 121.75 149.807 120.543 148.717C119.336 147.627 118.732 146.279 118.732 144.674C118.732 142.646 119.482 141.094 120.982 140.016C122.494 138.926 124.65 138.381 127.451 138.381H130.07V137.133C130.07 136.148 129.795 135.363 129.244 134.777C128.693 134.18 127.855 133.881 126.73 133.881C125.758 133.881 124.961 134.127 124.34 134.619C123.719 135.1 123.408 135.715 123.408 136.465H119.137C119.137 135.422 119.482 134.449 120.174 133.547C120.865 132.633 121.803 131.918 122.986 131.402C124.182 130.887 125.512 130.629 126.977 130.629C129.203 130.629 130.979 131.191 132.303 132.316C133.627 133.43 134.307 135 134.342 137.027V145.605C134.342 147.316 134.582 148.682 135.062 149.701V150H130.703ZM126.01 146.924C126.854 146.924 127.645 146.719 128.383 146.309C129.133 145.898 129.695 145.348 130.07 144.656V141.07H127.768C126.186 141.07 124.996 141.346 124.199 141.896C123.402 142.447 123.004 143.227 123.004 144.234C123.004 145.055 123.273 145.711 123.812 146.203C124.363 146.684 125.096 146.924 126.01 146.924ZM151.744 130.98L151.867 133.178C153.273 131.479 155.119 130.629 157.404 130.629C161.365 130.629 163.381 132.896 163.451 137.432V150H159.18V137.678C159.18 136.471 158.916 135.58 158.389 135.006C157.873 134.42 157.023 134.127 155.84 134.127C154.117 134.127 152.834 134.906 151.99 136.465V150H147.719V130.98H151.744ZM179.184 150C178.996 149.637 178.832 149.045 178.691 148.225C177.332 149.643 175.668 150.352 173.699 150.352C171.789 150.352 170.23 149.807 169.023 148.717C167.816 147.627 167.213 146.279 167.213 144.674C167.213 142.646 167.963 141.094 169.463 140.016C170.975 138.926 173.131 138.381 175.932 138.381H178.551V137.133C178.551 136.148 178.275 135.363 177.725 134.777C177.174 134.18 176.336 133.881 175.211 133.881C174.238 133.881 173.441 134.127 172.82 134.619C172.199 135.1 171.889 135.715 171.889 136.465H167.617C167.617 135.422 167.963 134.449 168.654 133.547C169.346 132.633 170.283 131.918 171.467 131.402C172.662 130.887 173.992 130.629 175.457 130.629C177.684 130.629 179.459 131.191 180.783 132.316C182.107 133.43 182.787 135 182.822 137.027V145.605C182.822 147.316 183.062 148.682 183.543 149.701V150H179.184ZM174.49 146.924C175.334 146.924 176.125 146.719 176.863 146.309C177.613 145.898 178.176 145.348 178.551 144.656V141.07H176.248C174.666 141.07 173.477 141.346 172.68 141.896C171.883 142.447 171.484 143.227 171.484 144.234C171.484 145.055 171.754 145.711 172.293 146.203C172.844 146.684 173.576 146.924 174.49 146.924ZM191.312 130.98L191.436 132.967C192.771 131.408 194.6 130.629 196.92 130.629C199.463 130.629 201.203 131.602 202.141 133.547C203.523 131.602 205.469 130.629 207.977 130.629C210.074 130.629 211.633 131.209 212.652 132.369C213.684 133.529 214.211 135.24 214.234 137.502V150H209.963V137.625C209.963 136.418 209.699 135.533 209.172 134.971C208.645 134.408 207.771 134.127 206.553 134.127C205.58 134.127 204.783 134.391 204.162 134.918C203.553 135.434 203.125 136.113 202.879 136.957L202.896 150H198.625V137.484C198.566 135.246 197.424 134.127 195.197 134.127C193.486 134.127 192.273 134.824 191.559 136.219V150H187.287V130.98H191.312ZM222.584 130.98L222.707 133.178C224.113 131.479 225.959 130.629 228.244 130.629C232.205 130.629 234.221 132.896 234.291 137.432V150H230.02V137.678C230.02 136.471 229.756 135.58 229.229 135.006C228.713 134.42 227.863 134.127 226.68 134.127C224.957 134.127 223.674 134.906 222.83 136.465V150H218.559V130.98H222.584Z" fill="black"/>
<path d="M104 79.4187V94H118.581L161.586 50.9949L147.005 36.4136L104 79.4187ZM172.863 39.7187C174.379 38.2022 174.379 35.7525 172.863 34.2361L163.764 25.1373C162.247 23.6209 159.798 23.6209 158.281 25.1373L151.166 32.253L165.747 46.8343L172.863 39.7187Z" fill="black"/>
<rect x="4.5" y="0.5" width="269" height="186" rx="19.5" stroke="#999999"/>
</g>
<defs>
<filter id="filter0_d" x="0" y="0" width="278" height="195" filterUnits="userSpaceOnUse" color-interpolation-filters="sRGB">
<feFlood flood-opacity="0" result="BackgroundImageFix"/>
<feColorMatrix in="SourceAlpha" type="matrix" values="0 0 0 0 0 0 0 0 0 0 0 0 0 0 0 0 0 0 127 0"/>
<feOffset dy="4"/>
<feGaussianBlur stdDeviation="2"/>
<feColorMatrix type="matrix" values="0 0 0 0 0 0 0 0 0 0 0 0 0 0 0 0 0 0 0.25 0"/>
<feBlend mode="normal" in2="BackgroundImageFix" result="effect1_dropShadow"/>
<feBlend mode="normal" in="SourceGraphic" in2="effect1_dropShadow" result="shape"/>
</filter>
</defs>
</svg>