<svg width="81" height="31" viewBox="0 0 81 31" fill="none" xmlns="http://www.w3.org/2000/svg">
<path d="M40.1923 6.80457C34.8333 6.80457 29.6418 7.65514 24.7853 9.25421V19.8013C24.7853 21.1282 24.0149 22.319 22.9096 22.8633C19.6272 24.5305 16.6463 26.6739 14.0003 29.1576C13.3974 29.77 12.5601 30.1102 11.6558 30.1102C10.7179 30.1102 9.88061 29.736 9.27772 29.1235L0.971314 20.6859C0.368429 20.1075 0 19.2569 0 18.3043C0 17.3516 0.368429 16.5011 0.971314 15.8887C11.1869 6.05606 24.9862 0 40.1923 0C55.3984 0 69.1977 6.05606 79.4133 15.8887C80.0162 16.5011 80.3846 17.3516 80.3846 18.3043C80.3846 19.2569 80.0162 20.1075 79.4133 20.7199L71.1069 29.1576C70.504 29.77 69.6667 30.1442 68.7288 30.1442C67.8245 30.1442 66.9872 29.77 66.3843 29.1916C63.7383 26.6739 60.7239 24.5645 57.4415 22.8974C56.3362 22.353 55.5659 21.1962 55.5659 19.8353V9.28823C50.7428 7.65514 45.5513 6.80457 40.1923 6.80457Z" fill="white"/>
</svg>
