<svg width="100" height="100" viewBox="0 0 100 100" fill="none" xmlns="http://www.w3.org/2000/svg">
<path d="M50.3333 79.1666C45.75 79.1666 42 82.9166 42 87.5C42 92.0833 45.75 95.8333 50.3333 95.8333C54.9167 95.8333 58.6667 92.0833 58.6667 87.5C58.6667 82.9166 54.9167 79.1666 50.3333 79.1666ZM25.3333 4.16663C20.75 4.16663 17 7.91663 17 12.5C17 17.0833 20.75 20.8333 25.3333 20.8333C29.9167 20.8333 33.6667 17.0833 33.6667 12.5C33.6667 7.91663 29.9167 4.16663 25.3333 4.16663ZM25.3333 29.1666C20.75 29.1666 17 32.9166 17 37.5C17 42.0833 20.75 45.8333 25.3333 45.8333C29.9167 45.8333 33.6667 42.0833 33.6667 37.5C33.6667 32.9166 29.9167 29.1666 25.3333 29.1666ZM25.3333 54.1666C20.75 54.1666 17 57.9166 17 62.5C17 67.0833 20.75 70.8333 25.3333 70.8333C29.9167 70.8333 33.6667 67.0833 33.6667 62.5C33.6667 57.9166 29.9167 54.1666 25.3333 54.1666ZM75.3333 20.8333C79.9167 20.8333 83.6667 17.0833 83.6667 12.5C83.6667 7.91663 79.9167 4.16663 75.3333 4.16663C70.75 4.16663 67 7.91663 67 12.5C67 17.0833 70.75 20.8333 75.3333 20.8333ZM50.3333 54.1666C45.75 54.1666 42 57.9166 42 62.5C42 67.0833 45.75 70.8333 50.3333 70.8333C54.9167 70.8333 58.6667 67.0833 58.6667 62.5C58.6667 57.9166 54.9167 54.1666 50.3333 54.1666ZM75.3333 54.1666C70.75 54.1666 67 57.9166 67 62.5C67 67.0833 70.75 70.8333 75.3333 70.8333C79.9167 70.8333 83.6667 67.0833 83.6667 62.5C83.6667 57.9166 79.9167 54.1666 75.3333 54.1666ZM75.3333 29.1666C70.75 29.1666 67 32.9166 67 37.5C67 42.0833 70.75 45.8333 75.3333 45.8333C79.9167 45.8333 83.6667 42.0833 83.6667 37.5C83.6667 32.9166 79.9167 29.1666 75.3333 29.1666ZM50.3333 29.1666C45.75 29.1666 42 32.9166 42 37.5C42 42.0833 45.75 45.8333 50.3333 45.8333C54.9167 45.8333 58.6667 42.0833 58.6667 37.5C58.6667 32.9166 54.9167 29.1666 50.3333 29.1666ZM50.3333 4.16663C45.75 4.16663 42 7.91663 42 12.5C42 17.0833 45.75 20.8333 50.3333 20.8333C54.9167 20.8333 58.6667 17.0833 58.6667 12.5C58.6667 7.91663 54.9167 4.16663 50.3333 4.16663Z" fill="black"/>
</svg>
