<svg width="102" height="86" viewBox="0 0 102 86" fill="none" xmlns="http://www.w3.org/2000/svg">
<g clip-path="url(#clip0)">
<path d="M53.0718 63.3155H61.6902C64.2438 63.3155 66.3212 61.5639 66.3212 59.4109V50.4203C66.3212 48.2671 64.2438 46.5157 61.6902 46.5157H57.7817V26.5159H61.6902C64.2438 26.5159 66.3212 24.7643 66.3212 22.6113V13.6201C66.3214 11.467 64.2438 9.71545 61.6902 9.71545H53.0718C46.9056 9.71545 41.889 13.9451 41.889 19.1442V53.8865C41.889 59.0857 46.9056 63.3155 53.0718 63.3155ZM46.6332 19.1442C46.6332 16.1508 49.5215 13.7155 53.0718 13.7155H61.5774V22.5153H55.41C54.0999 22.5153 53.0379 23.411 53.0379 24.5153V48.5152C53.0379 49.6196 54.0999 50.5152 55.41 50.5152H61.5774V59.3151H53.0718C49.5215 59.3151 46.6332 56.8797 46.6332 53.8864V19.1442Z" fill="black"/>
<path d="M88.8506 69.013L88.8558 69.0152V4.01563C88.856 2.91123 87.794 2.01562 86.4839 2.01562H21.3703C16.7271 2.01562 12.9495 5.20065 12.9495 9.1155V80.8995C12.9319 82.7978 13.795 84.5832 15.3798 85.9271C16.9685 87.274 19.0902 88.0151 21.3519 88.0151C21.3581 88.0151 21.3645 88.0151 21.3707 88.0151H25.9784C25.9844 88.0151 25.9903 88.0158 25.9961 88.0158C26.0019 88.0158 26.0075 88.0151 26.0131 88.0151H86.4841C87.376 88.0151 88.1928 87.5934 88.5976 86.9232C89.0026 86.253 88.9273 85.4479 88.4032 84.8395C84.628 80.4587 84.628 74.5716 88.4032 70.1908C88.7036 69.8419 88.8512 69.4285 88.8506 69.013ZM22.854 84.0151H21.3653C21.3625 84.0151 21.3599 84.0151 21.3569 84.0151C20.3628 84.0151 19.4348 83.6928 18.7438 83.1067C18.0586 82.5259 17.6859 81.7531 17.6935 80.9151V74.0751C17.6935 73.2574 18.0702 72.4903 18.7541 71.9148C19.4442 71.3345 20.368 71.015 21.3619 71.015C21.3647 71.015 21.3673 71.015 21.3703 71.015H22.854C21.6878 75.2502 21.6878 79.7801 22.854 84.0151ZM82.4175 84.0151H27.7542C26.4093 79.8557 26.4093 75.1746 27.7542 71.0152H82.4173C80.2936 75.1645 80.2936 79.8656 82.4175 84.0151ZM84.1122 67.0152H27.4165C27.4169 66.9997 27.4193 66.9849 27.4193 66.9693V61.5065C27.4193 60.4021 26.3573 59.5065 25.0472 59.5065C23.7372 59.5065 22.6751 60.4021 22.6751 61.5065V66.9693C22.6751 66.9848 22.6775 66.9997 22.6779 67.0152H21.3756C21.3693 67.0152 21.3633 67.0152 21.3569 67.0152C20.0648 67.0152 18.8195 67.2575 17.6925 67.7148L17.6939 67.7129V9.1155C17.6939 7.40608 19.3432 6.01546 21.3707 6.01546H22.6753V44.8152C22.6753 45.9196 23.7374 46.8152 25.0474 46.8152C26.3575 46.8152 27.4195 45.9196 27.4195 44.8152V6.01563H84.1122V67.0152Z" fill="black"/>
<path d="M25.1016 33.7617C23.7813 33.7617 22.7109 41.3476 22.7109 50.7018V56.6302C22.7109 65.9845 23.7813 73.5703 25.1016 73.5703C26.4219 73.5703 27.4922 65.9845 27.4922 56.6302V50.7018C27.4922 41.3476 26.4219 33.7617 25.1016 33.7617Z" fill="black"/>
<rect x="46" y="13" width="11" height="47" fill="black"/>
<rect x="56" y="50" width="6" height="10" fill="black"/>
<rect x="56" y="50" width="6" height="10" fill="black"/>
<rect x="56" y="50" width="6" height="10" fill="black"/>
<rect x="57" y="13" width="6" height="10" fill="black"/>
<rect x="57" y="13" width="6" height="10" fill="black"/>
<rect x="57" y="13" width="6" height="10" fill="black"/>
</g>
<defs>
<clipPath id="clip0">
<rect width="102" height="86" fill="white"/>
</clipPath>
</defs>
</svg>
