<svg width="24" height="26" viewBox="0 0 24 26" fill="none" xmlns="http://www.w3.org/2000/svg">
<path d="M17.1859 16.4167H16.1168L15.7378 16.0229C17.0641 14.3604 17.8626 12.2021 17.8626 9.85417C17.8626 4.61875 13.9243 0.375 9.0656 0.375C4.20692 0.375 0.268555 4.61875 0.268555 9.85417C0.268555 15.0896 4.20692 19.3333 9.0656 19.3333C11.2446 19.3333 13.2476 18.4729 14.7904 17.0438L15.1559 17.4521V18.6042L21.9228 25.8813L23.9394 23.7083L17.1859 16.4167ZM9.0656 16.4167C5.69565 16.4167 2.97534 13.4854 2.97534 9.85417C2.97534 6.22292 5.69565 3.29167 9.0656 3.29167C12.4355 3.29167 15.1559 6.22292 15.1559 9.85417C15.1559 13.4854 12.4355 16.4167 9.0656 16.4167Z" fill="#9E9E9E"/>
</svg>
